<?xml version="1.0" standalone="no"?>
<!DOCTYPE svg PUBLIC "-//W3C//DTD SVG 20010904//EN"
 "http://www.w3.org/TR/2001/REC-SVG-20010904/DTD/svg10.dtd">
<svg version="1.0" xmlns="http://www.w3.org/2000/svg"
 width="144.000000pt" height="144.000000pt" viewBox="0 0 144.000000 144.000000"
 preserveAspectRatio="xMidYMid meet">
<metadata>
Created by potrace 1.10, written by Peter Selinger 2001-2011
</metadata>
<g transform="translate(0.000000,144.000000) scale(0.100000,-0.100000)"
fill="#000000" stroke="none">
<path d="M666 1245 c-57 -20 -87 -45 -121 -100 -25 -40 -30 -59 -30 -109 1
-98 45 -164 135 -205 86 -39 182 -18 249 54 85 92 82 218 -8 306 -67 65 -144
83 -225 54z m125 -37 c81 -27 129 -91 129 -171 0 -112 -85 -191 -197 -186
-154 8 -229 202 -119 309 57 57 117 72 187 48z"/>
<path d="M318 743 c3 -118 5 -130 26 -148 38 -33 60 -77 63 -127 2 -39 -2 -53
-25 -80 -15 -18 -34 -38 -43 -45 -9 -7 -19 -22 -22 -33 -4 -16 1 -22 21 -27
15 -3 111 -29 213 -58 l185 -51 185 51 c101 29 196 55 212 59 39 9 34 32 -20
80 -47 43 -47 44 -45 102 1 36 8 63 16 69 8 6 15 19 17 30 3 11 17 26 32 33
l27 13 0 130 c0 71 -2 129 -5 129 -3 0 -98 -27 -212 -61 l-207 -61 -206 61
c-113 34 -207 61 -210 61 -3 0 -4 -57 -2 -127z m205 31 c67 -19 142 -41 166
-48 50 -15 49 -15 244 43 76 23 149 41 162 41 25 0 25 -1 25 -83 0 -78 -11
-115 -40 -137 -19 -14 -43 -87 -44 -130 -1 -39 5 -56 32 -94 l33 -46 -23 -10
c-47 -20 -312 -90 -341 -90 -40 0 -328 80 -345 95 -12 10 -9 20 17 55 43 60
43 126 0 194 -16 27 -37 55 -45 63 -15 15 -21 163 -7 176 12 13 44 7 166 -29z"/>
<path d="M226 608 c-20 -23 -38 -56 -42 -73 -14 -75 49 -185 106 -185 21 0 37
11 64 45 23 27 34 50 30 57 -5 7 -7 24 -6 39 1 16 -4 29 -13 33 -8 3 -15 14
-15 24 0 12 -11 24 -30 32 -24 10 -30 19 -30 41 0 41 -22 37 -64 -13z m80 -63
c37 -40 48 -90 27 -122 -30 -45 -60 -40 -91 16 -26 46 -28 88 -6 119 21 30 32
28 70 -13z"/>
<path d="M1187 643 c-4 -3 -7 -16 -7 -27 0 -13 -12 -28 -30 -38 -17 -9 -30
-23 -30 -31 0 -8 -6 -19 -13 -25 -7 -6 -13 -30 -14 -54 -2 -37 3 -49 32 -81
41 -45 72 -48 110 -9 35 34 55 81 55 127 0 43 -12 69 -53 113 -32 33 -39 37
-50 25z m45 -80 c53 -48 -15 -204 -70 -161 -46 36 -45 84 4 138 20 22 39 40
42 40 3 0 14 -7 24 -17z"/>
</g>
</svg>
